<?xml version="1.0" encoding="iso-8859-1"?>
<!-- Uploaded to: SVG Repo, www.svgrepo.com, Generator: SVG Repo Mixer Tools -->
<svg height="800px" width="800px" version="1.1" id="Capa_1" xmlns="http://www.w3.org/2000/svg" xmlns:xlink="http://www.w3.org/1999/xlink" 
	 viewBox="0 0 22.335 22.335" xml:space="preserve">
<g>
	<g>
		<path style="fill:#030104;" d="M16.248,0H6.087c-0.5,0-0.906,0.406-0.906,0.905v20.524c0,0.5,0.406,0.906,0.906,0.906h10.161
			c0.5,0,0.905-0.406,0.905-0.906V0.905C17.153,0.407,16.748,0,16.248,0z M16.396,21.429c0,0.081-0.066,0.146-0.146,0.146H6.087
			c-0.081,0-0.146-0.065-0.146-0.146V0.905c0-0.08,0.066-0.146,0.146-0.146h10.161c0.08,0,0.146,0.065,0.146,0.146L16.396,21.429
			L16.396,21.429z"/>
		<path style="fill:#030104;" d="M15.399,3.659c0-0.22-0.179-0.399-0.398-0.399H7.298C7.078,3.26,6.9,3.439,6.9,3.659v7.787
			c0,0.016,0.007,0.029,0.009,0.045C6.907,11.508,6.9,11.522,6.9,11.538v7.82c0,0.221,0.18,0.399,0.4,0.399h7.735
			c0.221,0,0.399-0.179,0.399-0.399v-7.82c0-0.058-0.014-0.111-0.035-0.161V3.659z M7.656,3.837h6.986
			c0.199,0,0.361,0.17,0.361,0.381v6.92H7.3c-0.002,0-0.003,0.001-0.005,0.001V4.218C7.295,4.007,7.458,3.837,7.656,3.837z"/>
	</g>
</g>
</svg>